<svg width="512" height="512" viewBox="0 0 512 512" fill="none" xmlns="http://www.w3.org/2000/svg">
<g clip-path="url(#clip0)">
<path d="M205.786 45.7957C227.623 23.9581 263.03 23.9581 284.868 45.7957C306.705 67.6334 306.705 103.04 284.868 124.877L207.088 202.679H458.668C488.122 202.679 512 226.557 512 256.011C512 285.466 488.122 309.344 458.668 309.344H207.088L284.868 387.123C306.705 408.961 306.705 444.367 284.868 466.205C263.03 488.043 227.623 488.043 205.786 466.205L3.12196 263.541C-1.04197 259.376 -1.04197 252.625 3.12196 248.459L205.786 45.7957Z" fill="#3FD9B8"/>
</g>
<defs>
<clipPath id="clip0">
<rect width="512" height="512" fill="white" transform="matrix(-1 0 0 1 512 0)"/>
</clipPath>
</defs>
</svg>
